<svg width="2257" height="2257" viewBox="0 0 2257 2257" fill="none" xmlns="http://www.w3.org/2000/svg">
<circle cx="1128.5" cy="1128.5" r="1128.5" fill="#151E35"/>
<mask id="path-2-inside-1_21_445" fill="white">
<path fill-rule="evenodd" clip-rule="evenodd" d="M1851.63 1445.87L1776.96 1496.24L1779.29 1501.48L1779.54 1501.31L1779.12 1500.22L1783.49 1498.56L1857.48 1447.09C1855.5 1446.77 1853.55 1446.36 1851.63 1445.87ZM962.053 1728.81L962.897 1728.9L962.705 1729.53L959.555 1728.55L960.294 1728.63C960.88 1728.69 961.467 1728.75 962.053 1728.81ZM1814.45 1565.04L1791.66 1505.06L1874.44 1447.47C1905.7 1443.95 1930 1417.43 1930 1385.23C1930 1359.9 1914.96 1338.07 1893.31 1328.21L1749.85 1111.11C1769.01 1085.18 1780.34 1053.11 1780.34 1018.39C1780.34 979.239 1765.93 943.45 1742.12 916.04L1731.21 885.691C1667.16 559.818 1379.92 314 1035.27 314C643.553 314 326 631.553 326 1023.27C326 1365.83 568.848 1651.67 891.775 1718.02L1538.64 1918.43C1560.36 1933.54 1586.75 1942.4 1615.22 1942.4L1615.43 1942.4L1615.7 1942.4L1615.86 1942.4L1616.02 1942.4L1616.03 1942.4L1616.03 1942.4C1689.78 1941.96 1749.43 1882.04 1749.43 1808.19C1749.43 1784.46 1743.27 1762.16 1732.45 1742.81L1780.58 1683.74C1791.25 1683.61 1799.86 1674.92 1799.86 1664.22C1799.86 1653.44 1791.12 1644.7 1780.34 1644.7C1779.47 1644.7 1778.62 1644.76 1777.78 1644.87L1774.16 1641.49L1762.19 1628.89L1797.84 1597.42C1798.51 1597.49 1799.18 1597.53 1799.86 1597.53C1810.64 1597.53 1819.38 1588.79 1819.38 1578C1819.38 1573.03 1817.52 1568.49 1814.45 1565.04Z"/>
</mask>
<path fill-rule="evenodd" clip-rule="evenodd" d="M1851.63 1445.87L1776.96 1496.24L1779.29 1501.48L1779.54 1501.31L1779.12 1500.22L1783.49 1498.56L1857.48 1447.09C1855.5 1446.77 1853.55 1446.36 1851.63 1445.87ZM962.053 1728.81L962.897 1728.9L962.705 1729.53L959.555 1728.55L960.294 1728.63C960.88 1728.69 961.467 1728.75 962.053 1728.81ZM1814.45 1565.04L1791.66 1505.06L1874.44 1447.47C1905.7 1443.95 1930 1417.43 1930 1385.23C1930 1359.9 1914.96 1338.07 1893.31 1328.21L1749.85 1111.11C1769.01 1085.18 1780.34 1053.11 1780.34 1018.39C1780.34 979.239 1765.93 943.45 1742.12 916.04L1731.21 885.691C1667.16 559.818 1379.92 314 1035.27 314C643.553 314 326 631.553 326 1023.27C326 1365.83 568.848 1651.67 891.775 1718.02L1538.64 1918.43C1560.36 1933.54 1586.75 1942.4 1615.22 1942.4L1615.43 1942.4L1615.7 1942.4L1615.86 1942.4L1616.02 1942.4L1616.03 1942.4L1616.03 1942.4C1689.78 1941.96 1749.43 1882.04 1749.43 1808.19C1749.43 1784.46 1743.27 1762.16 1732.45 1742.81L1780.58 1683.74C1791.25 1683.61 1799.86 1674.92 1799.86 1664.22C1799.86 1653.44 1791.12 1644.7 1780.34 1644.7C1779.47 1644.7 1778.62 1644.76 1777.78 1644.87L1774.16 1641.49L1762.19 1628.89L1797.84 1597.42C1798.51 1597.49 1799.18 1597.53 1799.86 1597.53C1810.64 1597.53 1819.38 1588.79 1819.38 1578C1819.38 1573.03 1817.52 1568.49 1814.45 1565.04Z" fill="#C2B1CB"/>
<path d="M1776.96 1496.24L1776.4 1495.41L1775.7 1495.88L1776.04 1496.65L1776.96 1496.24ZM1851.63 1445.87L1851.88 1444.9L1851.45 1444.79L1851.07 1445.04L1851.63 1445.87ZM1779.29 1501.48L1778.38 1501.89L1778.87 1502.99L1779.86 1502.3L1779.29 1501.48ZM1779.54 1501.31L1780.11 1502.13L1780.75 1501.68L1780.47 1500.95L1779.54 1501.31ZM1779.12 1500.22L1778.77 1499.28L1777.83 1499.64L1778.19 1500.57L1779.12 1500.22ZM1783.49 1498.56L1783.84 1499.49L1783.96 1499.45L1784.06 1499.38L1783.49 1498.56ZM1857.48 1447.09L1858.05 1447.91L1860.09 1446.49L1857.64 1446.1L1857.48 1447.09ZM962.897 1728.9L963.853 1729.19L964.209 1728.03L962.999 1727.91L962.897 1728.9ZM962.053 1728.81L961.951 1729.81L961.952 1729.81L962.053 1728.81ZM962.705 1729.53L962.409 1730.48L963.368 1730.78L963.661 1729.82L962.705 1729.53ZM959.555 1728.55L959.66 1727.56L959.259 1729.51L959.555 1728.55ZM960.294 1728.63L960.189 1729.63L960.19 1729.63L960.294 1728.63ZM1791.66 1505.06L1791.09 1504.24L1790.45 1504.68L1790.72 1505.41L1791.66 1505.06ZM1814.45 1565.04L1813.52 1565.39L1813.58 1565.57L1813.71 1565.7L1814.45 1565.04ZM1874.44 1447.47L1874.33 1446.47L1874.08 1446.5L1873.87 1446.65L1874.44 1447.47ZM1893.31 1328.21L1892.48 1328.76L1892.64 1329L1892.9 1329.12L1893.31 1328.21ZM1749.85 1111.11L1749.05 1110.51L1748.63 1111.07L1749.02 1111.66L1749.85 1111.11ZM1742.12 916.04L1741.18 916.379L1741.25 916.555L1741.37 916.696L1742.12 916.04ZM1731.21 885.691L1730.23 885.884L1730.25 885.958L1730.27 886.029L1731.21 885.691ZM891.775 1718.02L892.071 1717.07L892.024 1717.05L891.976 1717.04L891.775 1718.02ZM1538.64 1918.43L1539.21 1917.61L1539.09 1917.52L1538.94 1917.47L1538.64 1918.43ZM1615.22 1942.4L1615.22 1943.4L1615.22 1943.4L1615.22 1942.4ZM1615.43 1942.4L1615.43 1943.4L1615.43 1943.4L1615.43 1942.4ZM1615.7 1942.4L1615.7 1943.4L1615.7 1943.4L1615.7 1942.4ZM1615.86 1942.4L1615.87 1943.4L1615.87 1943.4L1615.86 1942.4ZM1616.02 1942.4L1616.31 1941.44L1616.17 1941.4L1616.02 1941.4L1616.02 1942.4ZM1616.03 1942.4L1615.74 1943.36L1616.7 1943.65L1616.99 1942.69L1616.03 1942.4ZM1616.03 1942.4L1616.03 1941.4L1615.29 1941.4L1615.08 1942.11L1616.03 1942.4ZM1732.45 1742.81L1731.68 1742.18L1731.25 1742.71L1731.58 1743.3L1732.45 1742.81ZM1780.58 1683.74L1780.57 1682.74L1780.1 1682.75L1779.81 1683.11L1780.58 1683.74ZM1777.78 1644.87L1777.1 1645.6L1777.44 1645.92L1777.91 1645.86L1777.78 1644.87ZM1774.16 1641.49L1773.43 1642.18L1773.45 1642.2L1773.48 1642.22L1774.16 1641.49ZM1762.19 1628.89L1761.52 1628.14L1760.75 1628.82L1761.46 1629.57L1762.19 1628.89ZM1797.84 1597.42L1797.95 1596.43L1797.51 1596.38L1797.18 1596.67L1797.84 1597.42ZM1777.52 1497.07L1852.19 1446.7L1851.07 1445.04L1776.4 1495.41L1777.52 1497.07ZM1780.2 1501.07L1777.87 1495.83L1776.04 1496.65L1778.38 1501.89L1780.2 1501.07ZM1778.97 1500.49L1778.72 1500.66L1779.86 1502.3L1780.11 1502.13L1778.97 1500.49ZM1778.19 1500.57L1778.6 1501.66L1780.47 1500.95L1780.06 1499.86L1778.19 1500.57ZM1783.13 1497.62L1778.77 1499.28L1779.48 1501.15L1783.84 1499.49L1783.13 1497.62ZM1856.91 1446.27L1782.92 1497.74L1784.06 1499.38L1858.05 1447.91L1856.91 1446.27ZM1851.38 1446.84C1853.33 1447.34 1855.31 1447.75 1857.32 1448.07L1857.64 1446.1C1855.69 1445.79 1853.77 1445.39 1851.88 1444.9L1851.38 1446.84ZM962.999 1727.91L962.155 1727.82L961.952 1729.81L962.796 1729.89L962.999 1727.91ZM963.661 1729.82L963.853 1729.19L961.941 1728.61L961.749 1729.24L963.661 1729.82ZM959.259 1729.51L962.409 1730.48L963.001 1728.57L959.851 1727.6L959.259 1729.51ZM960.399 1727.64L959.66 1727.56L959.45 1729.55L960.189 1729.63L960.399 1727.64ZM962.156 1727.82C961.57 1727.76 960.984 1727.7 960.399 1727.64L960.19 1729.63C960.777 1729.69 961.364 1729.75 961.951 1729.81L962.156 1727.82ZM1790.72 1505.41L1813.52 1565.39L1815.39 1564.68L1792.59 1504.7L1790.72 1505.41ZM1873.87 1446.65L1791.09 1504.24L1792.23 1505.88L1875.02 1448.29L1873.87 1446.65ZM1929 1385.23C1929 1416.91 1905.09 1443.01 1874.33 1446.47L1874.56 1448.46C1906.32 1444.89 1931 1417.94 1931 1385.23H1929ZM1892.9 1329.12C1914.2 1338.83 1929 1360.3 1929 1385.23H1931C1931 1359.49 1915.71 1337.32 1893.73 1327.3L1892.9 1329.12ZM1749.02 1111.66L1892.48 1328.76L1894.15 1327.66L1750.69 1110.55L1749.02 1111.66ZM1779.34 1018.39C1779.34 1052.89 1768.08 1084.75 1749.05 1110.51L1750.66 1111.7C1769.94 1085.6 1781.34 1053.33 1781.34 1018.39H1779.34ZM1741.37 916.696C1765.02 943.931 1779.34 979.489 1779.34 1018.39H1781.34C1781.34 978.989 1766.83 942.97 1742.88 915.385L1741.37 916.696ZM1730.27 886.029L1741.18 916.379L1743.06 915.702L1732.15 885.352L1730.27 886.029ZM1035.27 315C1379.43 315 1666.27 560.471 1730.23 885.884L1732.19 885.498C1668.05 559.165 1380.41 313 1035.27 313V315ZM327 1023.27C327 632.105 644.105 315 1035.27 315V313C643 313 325 631 325 1023.27H327ZM891.976 1717.04C569.505 1650.79 327 1365.35 327 1023.27H325C325 1366.32 568.191 1652.56 891.573 1719L891.976 1717.04ZM1538.94 1917.47L892.071 1717.07L891.479 1718.98L1538.35 1919.38L1538.94 1917.47ZM1615.22 1941.4C1586.97 1941.4 1560.77 1932.61 1539.21 1917.61L1538.07 1919.25C1559.95 1934.47 1586.54 1943.4 1615.22 1943.4V1941.4ZM1615.43 1941.4L1615.22 1941.4L1615.22 1943.4L1615.43 1943.4L1615.43 1941.4ZM1615.7 1941.4L1615.43 1941.4L1615.43 1943.4L1615.7 1943.4L1615.7 1941.4ZM1615.86 1941.4L1615.69 1941.4L1615.7 1943.4L1615.87 1943.4L1615.86 1941.4ZM1616.02 1941.4L1615.86 1941.4L1615.87 1943.4L1616.03 1943.4L1616.02 1941.4ZM1616.32 1941.44L1616.31 1941.44L1615.74 1943.36L1615.74 1943.36L1616.32 1941.44ZM1615.08 1942.11L1615.07 1942.11L1616.99 1942.69L1616.99 1942.69L1615.08 1942.11ZM1748.43 1808.19C1748.43 1881.49 1689.22 1940.96 1616.03 1941.4L1616.04 1943.4C1690.34 1942.96 1750.43 1882.59 1750.43 1808.19H1748.43ZM1731.58 1743.3C1742.31 1762.5 1748.43 1784.63 1748.43 1808.19H1750.43C1750.43 1784.28 1744.22 1761.82 1733.33 1742.32L1731.58 1743.3ZM1779.81 1683.11L1731.68 1742.18L1733.23 1743.44L1781.36 1684.37L1779.81 1683.11ZM1798.86 1664.22C1798.86 1674.37 1790.69 1682.62 1780.57 1682.74L1780.6 1684.74C1791.81 1684.6 1800.86 1675.47 1800.86 1664.22H1798.86ZM1780.34 1645.7C1790.57 1645.7 1798.86 1653.99 1798.86 1664.22H1800.86C1800.86 1652.89 1791.67 1643.7 1780.34 1643.7V1645.7ZM1777.91 1645.86C1778.71 1645.76 1779.51 1645.7 1780.34 1645.7V1643.7C1779.43 1643.7 1778.53 1643.76 1777.65 1643.88L1777.91 1645.86ZM1773.48 1642.22L1777.1 1645.6L1778.46 1644.14L1774.84 1640.76L1773.48 1642.22ZM1761.46 1629.57L1773.43 1642.18L1774.88 1640.8L1762.91 1628.2L1761.46 1629.57ZM1797.18 1596.67L1761.52 1628.14L1762.85 1629.64L1798.51 1598.17L1797.18 1596.67ZM1799.86 1596.53C1799.21 1596.53 1798.57 1596.49 1797.95 1596.43L1797.74 1598.42C1798.44 1598.49 1799.14 1598.53 1799.86 1598.53V1596.53ZM1818.38 1578C1818.38 1588.23 1810.09 1596.53 1799.86 1596.53V1598.53C1811.19 1598.53 1820.38 1589.34 1820.38 1578H1818.38ZM1813.71 1565.7C1816.61 1568.98 1818.38 1573.28 1818.38 1578H1820.38C1820.38 1572.77 1818.42 1568 1815.2 1564.38L1813.71 1565.7Z" fill="#C2B1CB" mask="url(#path-2-inside-1_21_445)"/>
</svg>
